# xmcd CD database file
#
# Track frame offsets:
#	182
#	15347
#	29565
#	43812
#	69805
#	91690
#	109845
#
# Disc length: 1927 seconds
#
# Revision: 6
# Processed by: cddbd v1.5.1PL0 Copyright (c) Steve Scherf et al.
# Submitted via: CDex 1.51
#
DISCID=4b078507
DTITLE=IRON MAIDEN - Purgatory - Maiden Japan (EP)
DYEAR=1981
DGENRE=Metal
TTITLE0=Purgatory
TTITLE1=Genghis Khan
TTITLE2=Running Free (LIVE)
TTITLE3=Remember Tomorrow (LIVE)
TTITLE4=Killers (LIVE)
TTITLE5=Innocent Excile (LIVE)
TTITLE6=Listen With Nicko! Part 3
EXTD=YEAR: 1981
EXTT0=
EXTT1=
EXTT2=
EXTT3=
EXTT4=
EXTT5=
EXTT6=
PLAYORDER=
